<?xml version="1.0" encoding="utf-8"?>
<!-- Generator: Adobe Illustrator 25.4.1, SVG Export Plug-In . SVG Version: 6.00 Build 0)  -->
<svg version="1.1" id="Layer_1" xmlns="http://www.w3.org/2000/svg" xmlns:xlink="http://www.w3.org/1999/xlink" x="0px" y="0px"
	 viewBox="0 0 958.5 501.4" style="enable-background:new 0 0 958.5 501.4;" xml:space="preserve">
<style type="text/css">
	.st0{display:none;}
	.st1{display:inline;stroke:#000000;stroke-miterlimit:10;}
	.st2{fill:#FFFFFF;}
	.st3{fill:#FEBC11;}
	.st4{display:none;fill:#FFFFFF;}
	.st5{font-family:'HelveticaNeue-Medium';}
	.st6{font-size:46.0383px;}
</style>
<g id="Layer_2" class="st0">
	<rect x="-15" y="-28" class="st1" width="990" height="557"/>
</g>
<path class="st2" d="M958.2,204.3c0.2-62.5-53.9-126.2-123.4-141.6c-17.1-3.9-34.4-6.4-51.9-7.5c18.4,2.7,36.4,7.4,53.7,14.1
	c37.6,15.4,67.6,45,83.6,82.4c7.2,16.6,10.8,34.5,10.8,52.6c0.8,32.2-9.9,61.2-26.2,84.4c-0.4,0.6-0.9,1.3-1.3,1.9
	c-2.6,3.5-5.2,6.9-8,10.2c-0.1,0.2-0.3,0.3-0.5,0.5c-8.9,10.3-19.3,19.2-30.8,26.6c-5.5,3.5-11.1,6.6-17,9.4l-1.1,0.5
	c-3.8,1.8-7.6,3.4-11.4,4.8c-18.3,7-37.5,11.3-57,12.8l-5.6,0.8c29.9,0.3,69.4,1.7,110.4-19.9C921.7,316.1,962.6,267.2,958.2,204.3"
	/>
<path class="st2" d="M21.8,71.8c-5,15.2-15.8,53.4,7.9,94c24.5,39.7,63.1,50.1,79.3,52.4c-16.3-8.1-45-29.9-63.8-61.5
	C26.1,125.3,21.8,89.9,21.8,71.8"/>
<path class="st3" d="M627.9,72c-134.1,30-244.1,89.1-341.7,121.9c-96.6,36.5-196.9,46.7-240.6,2.5c34.6,50,144.2,61,250.7,35.6
	c106.6-21.2,221.5-69.3,345.4-96.7c60-12.3,126.6-23.5,175.2-15c50.3,7.9,89.5,44.1,96.3,89.1c7.3,33.6-4.4,66.3-24,90.7
	c20.8-24.5,35.2-57.5,33.9-94.6c0.1-21.9-6-44.1-17.1-64.3c-16.8-30.5-43.6-54.3-75.8-67.4c-28.1-10.9-58.7-15.9-90.3-17
	C702.7,58.2,666.1,64.8,627.9,72"/>
<polygon class="st3" points="32.9,20.4 17,13.2 19.6,32.4 0,43.4 17.1,47.9 8.1,68.7 27,55.6 35.6,71.1 42.3,49.7 63.2,47.8 
	51.5,34.2 69,15.4 47.2,21.1 47.7,0 "/>
<polygon class="st2" points="241,366.8 255.4,288.3 255.4,288.3 259.6,264.9 259.6,264.9 278.8,159.9 199.7,159.9 181.4,260.4 
	181.4,260.4 179,273.4 179,273.4 149.9,432.6 345.6,432.6 357.7,366.8 "/>
<path class="st2" d="M582.9,159.9l-20.2,111l0,0l-4.4,24.2l-14-24l0,0l-65-111.2h-69l-20.2,110.7l-6,33l0,0l-3.2,17.4l-0.5,2.6l0,0
	l-19.9,108.9h75l19.5-107.8l7.1-39.3l9.9,17.7l72.4,129.4h63.7L631.3,306l0,0l6.6-36.2l0,0l3.3-18.1l0,0l16.7-91.6H582.9z"/>
<path class="st2" d="M887.9,250.3c12-65.8-27.4-90.3-93.6-90.3H672.9l-16.2,88.6l0,0l-2.8,15.5l-1,5.3l0,0l-6.5,35.6l0,0
	l-23.3,127.6h77l16.2-88.4h39.1c60.8,0,109-19.8,127.4-74l0,0c1.3-4,2.5-8.2,3.6-12.5l0,0C886.9,255.2,887.4,252.8,887.9,250.3
	L887.9,250.3z M730.4,266.7L730.4,266.7l8.3-45.2H781c25,0,32.1,12.1,28.8,30c-0.7,3.9-1.8,7.8-3.4,11.4l0,0
	c-5.9,13.1-17.5,19.7-37.8,19.7h-41.1L730.4,266.7L730.4,266.7z"/>
<path class="st2" d="M155.7,468.4h5.6l-4.8,27.3h16.4l-0.9,4.9h-22L155.7,468.4z"/>
<g>
	<path class="st2" d="M155.8,468.3h5.7l-4.8,27.5h16.5l-0.9,4.9h-22.1L155.8,468.3z"/>
	<path class="st2" d="M181.8,488l-8.7-19.7h6.6l6,14.5l11-14.5h6.3L187.4,488l-2.2,12.7h-5.7L181.8,488z"/>
	<path class="st2" d="M206.2,468.3h5.7l-5.7,32.4h-5.7L206.2,468.3z"/>
	<path class="st2" d="M218.5,468.3h6l10.6,23.8h0.1l4.2-23.8h5.4l-5.7,32.4h-6l-10.6-23.8h-0.1l-4.2,23.8h-5.4L218.5,468.3z"/>
	<path class="st2" d="M274.1,500.7h-3.6l-0.2-3.8c-3.6,3.4-6.6,4.6-10.6,4.6c-9.7,0-14.2-7.7-12.5-17s8.8-17,18.5-17
		c7.1,0,12.4,3.8,11.9,11.1h-5.5c0.2-4.3-3.1-6.4-7.2-6.4c-6.9,0-10.9,6.1-12,12.3c-1.1,6.2,0.7,12.3,7.7,12.3
		c5.8,0.1,9.6-3.4,10.6-8.9h-8.6l0.8-4.3h13.8L274.1,500.7z"/>
	<path class="st2" d="M298.3,468.3h6l10.6,23.8h0.1l4.2-23.8h5.4l-5.7,32.4h-6l-10.6-23.8h-0.1l-4.2,23.8h-5.4L298.3,468.3z"/>
	<path class="st2" d="M339.9,468.3h6l6.8,32.4h-6.1l-1.5-8.6h-12.9l-4.5,8.6h-5.8L339.9,468.3z M334.5,487.8h9.9l-2.4-13.9h-0.1
		L334.5,487.8z"/>
	<path class="st2" d="M361.5,468.3H377c7.1,0,10.1,3.3,9.2,8.8c-1.1,6.2-5.7,7.8-6.8,8.2l0,0.1c1.9,0.3,4.5,1.7,3.6,6.8
		c-0.7,3.8-0.7,7.2,0.3,8.5h-6.1c-0.6-1.4-0.3-3.2,0-4.8c1-5.9,0.3-8.6-4.9-8.6h-8.3l-2.3,13.3h-5.7L361.5,468.3z M364.6,483h9.3
		c3.6,0,5.8-1.8,6.4-5.2c0.7-4.1-1.8-4.9-4.8-4.9h-9.2L364.6,483z"/>
	<path class="st2" d="M413.5,478.6c-0.3-3.7-2.2-6.4-6.9-6.4c-6.9,0-10.9,6.1-12,12.3c-1.1,6.2,0.7,12.3,7.7,12.3
		c5,0,8.5-3.8,9.7-8.5h5.5c-1.8,7.8-8.2,13.1-16.1,13.1c-9.7,0-14.2-7.7-12.5-17s8.8-17,18.5-17c7.3,0,12.3,4.1,11.8,11.1H413.5z"/>
	<path class="st2" d="M426.2,468.3h5.7l-5.7,32.4h-5.7L426.2,468.3z"/>
	<path class="st2" d="M438.7,489.9c-0.9,5,2.5,6.9,7,6.9c5,0,7.3-2.4,7.7-4.9c0.4-2.5-0.7-3.5-2-4c-2.1-0.9-5-1.5-9.2-2.7
		c-5.3-1.5-6.3-4.9-5.7-8.2c1.1-6.5,7.7-9.5,13.5-9.5c6.8,0,11.8,3.6,10.6,10.3H455c0.5-4.2-2.1-5.7-6-5.7c-2.6,0-6.1,1-6.7,4.2
		c-0.4,2.3,0.9,3.5,3.1,4.2c0.5,0.1,7.3,2,8.9,2.5c4,1.3,5.4,4.9,4.9,8.3c-1.3,7.3-8.2,10.2-14.7,10.2c-7.4,0-12.8-3.5-11.5-11.6
		H438.7z"/>
	<path class="st2" d="M468.1,489.9c-0.9,5,2.5,6.9,7,6.9c5,0,7.3-2.4,7.7-4.9c0.4-2.5-0.7-3.5-2-4c-2.1-0.9-5-1.5-9.2-2.7
		c-5.3-1.5-6.3-4.9-5.7-8.2c1.1-6.5,7.7-9.5,13.5-9.5c6.8,0,11.8,3.6,10.6,10.3h-5.7c0.5-4.2-2.1-5.7-6-5.7c-2.6,0-6.1,1-6.7,4.2
		c-0.4,2.3,0.9,3.5,3.1,4.2c0.5,0.1,7.3,2,8.9,2.5c4,1.3,5.4,4.9,4.9,8.3c-1.3,7.3-8.2,10.2-14.7,10.2c-7.4,0-12.8-3.5-11.5-11.6
		H468.1z"/>
	<path class="st2" d="M497.5,468.3h5.7l-5.7,32.4h-5.7L497.5,468.3z"/>
	<path class="st2" d="M510.1,489.9c-0.9,5,2.5,6.9,7,6.9c5,0,7.3-2.4,7.7-4.9c0.4-2.5-0.7-3.5-2-4c-2.1-0.9-5-1.5-9.2-2.7
		c-5.3-1.5-6.3-4.9-5.7-8.2c1.1-6.5,7.7-9.5,13.5-9.5c6.8,0,11.8,3.6,10.6,10.3h-5.7c0.5-4.2-2.1-5.7-6-5.7c-2.6,0-6.1,1-6.7,4.2
		c-0.4,2.3,0.9,3.5,3.1,4.2c0.5,0.1,7.3,2,8.9,2.5c4,1.3,5.4,4.9,4.9,8.3c-1.3,7.3-8.2,10.2-14.7,10.2c-7.4,0-12.8-3.5-11.5-11.6
		H510.1z"/>
	<path class="st2" d="M536.4,468.3h26.2l-0.9,4.9h-10.3l-4.8,27.5H541l4.8-27.5h-10.2L536.4,468.3z"/>
	<path class="st2" d="M579,468.3h14.3c9.3,0,10,6,9.3,10c-0.7,4-3.5,10-12.8,9.9h-8.6l-2.2,12.4h-5.7L579,468.3z M582,483.6h8.3
		c2.5,0,5.9-1.3,6.6-5.3c0.8-4.3-1.6-5.4-4.6-5.4h-8.4L582,483.6z"/>
	<path class="st2" d="M614.6,468.3h6l6.8,32.4h-6.1l-1.5-8.6h-12.9l-4.5,8.6h-5.8L614.6,468.3z M609.1,487.8h9.9l-2.4-13.9h-0.1
		L609.1,487.8z"/>
	<path class="st2" d="M636.1,468.3h15.5c7.1,0,10.1,3.3,9.2,8.8c-1.1,6.2-5.7,7.8-6.8,8.2l0,0.1c1.9,0.3,4.5,1.7,3.6,6.8
		c-0.7,3.8-0.7,7.2,0.3,8.5h-6.1c-0.6-1.4-0.3-3.2,0-4.8c1-5.9,0.3-8.6-4.9-8.6h-8.3l-2.3,13.3h-5.7L636.1,468.3z M639.2,483h9.3
		c3.6,0,5.8-1.8,6.4-5.2c0.7-4.1-1.8-4.9-4.8-4.9H641L639.2,483z"/>
	<path class="st2" d="M664.2,468.3h26.2l-0.9,4.9h-10.3l-4.8,27.5h-5.7l4.8-27.5h-10.2L664.2,468.3z"/>
	<path class="st2" d="M699.1,488l-8.7-19.7h6.6l6,14.5l11-14.5h6.3L704.8,488l-2.2,12.7h-5.7L699.1,488z"/>
</g>
<text transform="matrix(0.9849 0 -0.1732 0.9849 146.6219 500.6525)" class="st4 st5 st6">LYING NARCISSIST PARTY</text>
</svg>
