<svg xmlns="http://www.w3.org/2000/svg" width="958.5" height="501.42" viewBox="0 0 958.5 501.42"><path d="M1165.91,421.66c.23-62.46-53.89-126.16-123.44-141.58a322.79,322.79,0,0,0-51.9-7.46,250.21,250.21,0,0,1,53.72,14.1,154.37,154.37,0,0,1,83.56,82.44,131.56,131.56,0,0,1,10.76,52.63c.84,32.17-9.9,61.2-26.21,84.35-.44.63-.88,1.26-1.34,1.87-2.57,3.54-5.24,6.94-8,10.17-.14.18-.31.35-.46.53a143,143,0,0,1-30.76,26.56,155.17,155.17,0,0,1-17,9.37l-1.12.52c-3.81,1.77-7.64,3.41-11.43,4.84a200.93,200.93,0,0,1-57,12.81l-5.56.82c29.92.26,69.43,1.68,110.38-19.86,39.31-20.34,80.25-69.21,75.79-132.11" transform="translate(-207.71 -217.32)" style="fill:#fff"/><path d="M229.46,289.1c-5,15.18-15.82,53.39,7.9,94,24.47,39.73,63.14,50.11,79.29,52.35-16.3-8.08-45-29.87-63.75-61.49-19.1-31.3-23.43-66.77-23.45-84.89" transform="translate(-207.71 -217.32)" style="fill:#fff"/><path d="M835.58,289.31c-134.09,30-244.08,89.13-341.67,121.87C397.34,447.7,297,457.92,253.34,413.63c34.65,50,144.18,61,250.74,35.57C610.65,428,725.55,379.87,849.45,352.55c60-12.29,126.6-23.51,175.22-15.05,50.26,7.87,89.51,44.08,96.33,89.08,7.34,33.57-4.4,66.3-24,90.68,20.77-24.48,35.16-57.54,33.94-94.59.12-21.86-6-44.07-17.11-64.27A151.64,151.64,0,0,0,1038,291c-28.14-10.94-58.72-15.92-90.34-17-37.21,1.56-73.83,8.15-112.13,15.35" transform="translate(-207.71 -217.32)" style="fill:#febc11"/><polygon points="32.87 20.39 16.99 13.18 19.58 32.38 0 43.42 17.07 47.88 8.06 68.66 27.01 55.57 35.6 71.13 42.31 49.68 63.18 47.75 51.47 34.24 68.98 15.37 47.23 21.07 47.74 0 32.87 20.39" style="fill:#febc11"/><polygon points="241.02 366.76 255.35 288.27 255.36 288.27 259.62 264.94 259.62 264.94 278.79 159.95 199.74 159.95 181.4 260.4 181.4 260.4 179.01 273.44 179 273.44 149.95 432.57 345.64 432.57 357.66 366.76 241.02 366.76" style="fill:#fff"/><path d="M790.66,377.26l-20.17,111h0l-4.4,24.19-14.05-24h0L687,377.26h-69L597.83,488l-6,33h0l-3.18,17.43-.47,2.56h0L568.26,649.88h75l19.52-107.79,7.11-39.26,9.88,17.66,72.38,129.4h63.73L839,523.27h0l6.62-36.22h0l3.31-18.15h0l16.73-91.64h-75Z" transform="translate(-207.71 -217.32)" style="fill:#fff"/><path d="M1095.6,467.6c12-65.79-27.45-90.34-93.59-90.34H880.62l-16.2,88.64h0l-2.83,15.51-1,5.27h0l-6.5,35.61h0L830.82,649.88h77L924,561.49h39.11c60.84,0,109-19.81,127.36-74h0q2-6,3.58-12.51h0c.56-2.41,1.08-4.84,1.55-7.36ZM938.09,484h0l8.27-45.22h42.35c25,0,32.06,12.07,28.8,30a49.91,49.91,0,0,1-3.44,11.43h0c-5.87,13.06-17.55,19.71-37.75,19.71H935.24L938.15,484h-.06Z" transform="translate(-207.71 -217.32)" style="fill:#fff"/><path d="M363.44,685.75h5.64l-4.82,27.35h16.37l-.85,4.87h-22Z" transform="translate(-207.71 -217.32)" style="fill:#fff"/><path d="M389.34,685.75H395L389.3,718h-5.64Z" transform="translate(-207.71 -217.32)" style="fill:#fff"/><path d="M401.88,685.75h23.2l-.86,4.87H406.67l-1.49,8.44h16.24l-.81,4.61H404.37l-1.67,9.43h17.87l-.86,4.87H396.2Z" transform="translate(-207.71 -217.32)" style="fill:#fff"/><path d="M430.31,685.75H436L430.27,718h-5.64Z" transform="translate(-207.71 -217.32)" style="fill:#fff"/><path d="M442.63,685.75h6l10.52,23.74h.09l4.19-23.74h5.37L463.08,718h-6l-10.49-23.69h-.13L442.32,718H437Z" transform="translate(-207.71 -217.32)" style="fill:#fff"/><path d="M497.87,718h-3.61l-.19-3.79c-3.63,3.43-6.58,4.56-10.5,4.56-9.66,0-14.08-7.67-12.46-16.88S479.86,685,489.52,685c7,0,12.29,3.75,11.86,11h-5.5c.2-4.25-3.11-6.41-7.17-6.41-6.91,0-10.87,6.09-12,12.27s.72,12.28,7.63,12.28c5.76.09,9.53-3.39,10.58-8.85h-8.57l.75-4.29h13.72Z" transform="translate(-207.71 -217.32)" style="fill:#fff"/><path d="M522,685.75h6l10.52,23.74h.09l4.19-23.74h5.37L542.45,718h-6L526,694.28h-.13L521.7,718h-5.37Z" transform="translate(-207.71 -217.32)" style="fill:#fff"/><path d="M563.44,685.75h6L576.16,718h-6l-1.52-8.53H555.74L551.21,718h-5.82ZM558,705.16h9.84l-2.39-13.86h-.14Z" transform="translate(-207.71 -217.32)" style="fill:#fff"/><path d="M584.92,685.75H600.3c7,0,10.08,3.25,9.12,8.71a9.81,9.81,0,0,1-6.76,8.12l0,.09c1.9.27,4.48,1.72,3.58,6.82-.66,3.74-.72,7.17.27,8.48h-6c-.61-1.4-.3-3.16,0-4.74,1-5.91.29-8.53-4.9-8.53h-8.3L584.88,718h-5.64ZM588,700.42h9.25c3.57,0,5.82-1.76,6.41-5.15.73-4.1-1.79-4.92-4.73-4.92h-9.15Z" transform="translate(-207.71 -217.32)" style="fill:#fff"/><path d="M636.63,696c-.3-3.71-2.21-6.41-6.9-6.41-6.91,0-10.87,6.09-12,12.27s.72,12.28,7.63,12.28c5,0,8.42-3.75,9.7-8.44h5.5a16.39,16.39,0,0,1-16,13c-9.66,0-14.08-7.67-12.46-16.88S620.88,685,630.54,685c7.25,0,12.28,4.06,11.73,11Z" transform="translate(-207.71 -217.32)" style="fill:#fff"/><path d="M649.27,685.75h5.64L649.23,718h-5.64Z" transform="translate(-207.71 -217.32)" style="fill:#fff"/><path d="M661.72,707.23c-.87,5,2.44,6.91,6.95,6.91,5,0,7.25-2.44,7.68-4.88s-.74-3.47-2-4c-2.11-.86-4.94-1.44-9.15-2.66-5.24-1.49-6.27-4.83-5.69-8.17C660.69,688,667.18,685,673,685c6.72,0,11.74,3.57,10.55,10.29h-5.64c.46-4.15-2.06-5.68-5.95-5.68-2.61,0-6.07.94-6.65,4.19-.39,2.26.92,3.52,3.11,4.16.47.13,7.27,2,8.86,2.48a7,7,0,0,1,4.82,8.21c-1.27,7.22-8.19,10.11-14.6,10.11-7.35,0-12.69-3.52-11.42-11.51Z" transform="translate(-207.71 -217.32)" style="fill:#fff"/><path d="M691,707.23c-.88,5,2.44,6.91,6.95,6.91,5,0,7.24-2.44,7.67-4.88s-.74-3.47-2-4c-2.11-.86-4.94-1.44-9.14-2.66-5.25-1.49-6.28-4.83-5.69-8.17,1.13-6.45,7.62-9.48,13.44-9.48,6.73,0,11.74,3.57,10.55,10.29h-5.64c.46-4.15-2.06-5.68-5.94-5.68-2.62,0-6.08.94-6.65,4.19-.4,2.26.91,3.52,3.1,4.16.47.13,7.27,2,8.86,2.48a6.94,6.94,0,0,1,4.82,8.21c-1.27,7.22-8.19,10.11-14.6,10.11-7.35,0-12.69-3.52-11.41-11.51Z" transform="translate(-207.71 -217.32)" style="fill:#fff"/><path d="M720.3,685.75h5.64L720.26,718h-5.64Z" transform="translate(-207.71 -217.32)" style="fill:#fff"/><path d="M732.75,707.23c-.87,5,2.44,6.91,7,6.91,5,0,7.25-2.44,7.68-4.88s-.75-3.47-2-4c-2.11-.86-4.94-1.44-9.15-2.66-5.24-1.49-6.27-4.83-5.69-8.17C731.72,688,738.21,685,744,685c6.72,0,11.74,3.57,10.55,10.29h-5.64c.46-4.15-2.06-5.68-6-5.68-2.61,0-6.07.94-6.65,4.19-.39,2.26.92,3.52,3.11,4.16.47.13,7.27,2,8.85,2.48a7,7,0,0,1,4.83,8.21c-1.28,7.22-8.19,10.11-14.6,10.11-7.35,0-12.69-3.52-11.42-11.51Z" transform="translate(-207.71 -217.32)" style="fill:#fff"/><path d="M759,685.75H785.1l-.86,4.87H774L769.17,718h-5.64l4.82-27.35H758.16Z" transform="translate(-207.71 -217.32)" style="fill:#fff"/><path d="M801.39,685.75H815.6c9.21,0,9.92,6,9.21,10s-3.51,9.93-12.71,9.89h-8.57L801.35,718h-5.64Zm3,15.25h8.26a6.31,6.31,0,0,0,6.57-5.32c.75-4.24-1.63-5.33-4.61-5.33h-8.34Z" transform="translate(-207.71 -217.32)" style="fill:#fff"/><path d="M836.77,685.75h6L849.5,718h-6l-1.52-8.53H829.07L824.54,718h-5.82Zm-5.41,19.41h9.84l-2.39-13.86h-.13Z" transform="translate(-207.71 -217.32)" style="fill:#fff"/><path d="M858.25,685.75h15.39c7,0,10.07,3.25,9.11,8.71a9.81,9.81,0,0,1-6.76,8.12v.09c1.89.27,4.48,1.72,3.58,6.82-.66,3.74-.73,7.17.26,8.48h-6.05c-.61-1.4-.3-3.16,0-4.74,1-5.91.29-8.53-4.9-8.53h-8.3L858.21,718h-5.64Zm3,14.67h9.25c3.57,0,5.82-1.76,6.41-5.15.73-4.1-1.79-4.92-4.72-4.92h-9.16Z" transform="translate(-207.71 -217.32)" style="fill:#fff"/><path d="M886.14,685.75h26.08l-.86,4.87H901.12L896.29,718h-5.63l4.82-27.35h-10.2Z" transform="translate(-207.71 -217.32)" style="fill:#fff"/><path d="M920.91,705.34l-8.64-19.59h6.54l6,14.44,10.94-14.44h6.32l-15.5,19.59L924.32,718h-5.64Z" transform="translate(-207.71 -217.32)" style="fill:#fff"/></svg>